<?xml version="1.0" encoding="UTF-8"?>
<svg id="Layer_1" data-name="Layer 1" xmlns="http://www.w3.org/2000/svg" viewBox="0 0 15 15.1">
  <path d="M13.86.64c1.75.83,1.14,3.05.41,4.52l-2.68,5.37c-.79,1.95-2.09,3.45-4.1,4.15-.65.23-1.3.36-1.99.42l-5.5-.58V2.86C0,1.7.58.66,1.66.23,2.03.08,2.4,0,2.81,0h5.52c.66,0,1.29.26,1.78.68.56.47.83,1.14.91,1.84l.02-.48c.44-1.17,1.64-1.95,2.82-1.39ZM8.64,6.1c0-.44-.36-.8-.8-.8s-.8.36-.8.8.36.8.8.8.8-.36.8-.8ZM5.66,6.68c0-.56-.46-1.02-1.02-1.02s-1.02.46-1.02,1.02.46,1.02,1.02,1.02,1.02-.46,1.02-1.02ZM7.71,8.85c-.91.7-1.72.71-2.63,0-.1-.08-.23-.07-.31.03-.07.09-.04.22.07.3,1.08.81,2.04.81,3.12-.01.1-.07.11-.2.05-.28-.07-.1-.2-.12-.3-.04Z"/>
</svg>